<svg width="739" height="476" viewBox="0 0 739 476" fill="none" xmlns="http://www.w3.org/2000/svg">
<rect width="739" height="476" fill="url(#paint0_linear_6_13)"/>
<path d="M192.102 361.103C190.357 361.333 188.557 361.449 186.701 361.451C181.621 361.475 177.739 360.493 175.057 358.506C172.454 356.509 170.975 354.162 170.62 351.465C170.234 348.53 171.192 345.701 173.497 342.977C175.79 340.173 179.317 338.459 184.076 337.832C187.248 337.414 190.782 337.595 194.677 338.373C196.833 338.815 199.448 339.681 202.523 340.971C205.598 342.261 209.119 343.572 213.087 344.906C216.552 340.577 219.539 335.382 222.05 329.323C224.64 323.253 227.138 316.791 229.544 309.939C232.019 302.996 234.732 296.022 237.683 289.017C240.713 282.002 244.39 275.304 248.714 268.925L254.597 260.284C251.6 260.194 248.499 260.239 245.295 260.419C242.081 260.519 238.768 260.794 235.357 261.243C231.074 261.807 226.704 262.624 222.245 263.696C217.777 264.687 213.344 265.957 208.949 267.504C201.702 270.072 195.73 273.44 191.034 277.608C186.338 281.777 182.913 286.101 180.76 290.581C178.675 294.97 177.867 298.95 178.337 302.519C178.661 304.978 179.627 307.11 181.237 308.915C182.915 310.631 185.2 311.742 188.091 312.249C189.909 312.575 191.73 312.617 193.554 312.377C196.251 312.022 198.557 311.154 200.473 309.772C202.389 308.39 203.957 306.812 205.176 305.037C206.384 303.184 207.206 301.462 207.642 299.871C208.158 298.27 208.329 297.118 208.156 296.415C208.082 295.859 208.442 295.53 209.236 295.425C210.029 295.321 210.504 295.863 210.66 297.053L210.676 297.172C211.104 300.424 210.483 303.37 208.814 306.011C207.144 308.651 204.886 310.804 202.039 312.47C199.271 314.126 196.381 315.152 193.367 315.549C191.463 315.799 189.438 315.743 187.293 315.38C182.811 314.437 179.351 312.673 176.913 310.09C174.465 307.426 173.011 304.35 172.551 300.86C172.123 297.608 172.557 294.162 173.853 290.522C175.218 286.792 177.441 283.15 180.524 279.597C183.596 275.965 187.559 272.66 192.411 269.681C197.343 266.692 203.157 264.272 209.853 262.422C213.429 261.387 216.985 260.515 220.523 259.807C224.061 259.099 227.496 258.526 230.827 258.088C235.427 257.482 239.94 257.13 244.365 257.031C248.859 256.843 253.106 256.93 257.108 257.29C258.093 256.192 259.094 255.213 260.11 254.353C261.206 253.483 262.203 252.787 263.103 252.265C263.627 251.954 264.082 251.732 264.468 251.601C264.854 251.469 265.166 251.388 265.404 251.357C265.88 251.294 266.139 251.421 266.181 251.739C266.233 252.135 265.721 252.848 264.647 253.877C263.927 254.537 263.257 255.27 262.637 256.078C262.006 256.807 261.633 257.34 261.516 257.678C269.878 258.675 276.797 260.669 282.274 263.66C287.82 266.561 290.917 270.47 291.565 275.388C291.899 277.926 291.431 280.811 290.163 284.045C288.804 287.209 286.698 289.907 283.845 292.139C280.981 294.291 277.862 296.033 274.487 297.365C271.102 298.617 267.912 299.521 264.919 300.077C267.641 300.525 270.653 301.339 273.955 302.518C277.326 303.608 280.467 305.09 283.376 306.967C286.366 308.832 288.495 311.215 289.764 314.114C290.57 315.944 291.103 317.851 291.364 319.834C291.918 324.038 291.19 328.007 289.18 331.741C287.249 335.465 284.423 338.822 280.702 341.814C277.049 344.715 272.927 347.114 268.335 349.01C263.754 350.984 259.123 352.28 254.444 352.896C252.699 353.126 250.899 353.242 249.043 353.244C241.303 353.295 234.841 352.935 229.656 352.165C224.551 351.385 220.019 350.368 216.062 349.113C209.13 355.916 201.144 359.913 192.102 361.103ZM252.324 349.665C257.242 349.018 261.624 347.674 265.47 345.635C269.317 343.595 272.546 341.153 275.157 338.308C277.847 335.452 279.787 332.413 280.977 329.19C282.245 325.957 282.687 322.873 282.3 319.938C281.935 317.162 280.747 314.575 278.737 312.177C276.727 309.779 273.822 307.942 270.023 306.667C266.731 305.567 263.357 304.761 259.901 304.248C256.513 303.645 253.582 303.143 251.109 302.742C248.625 302.262 247.133 301.652 246.632 300.911C246.506 299.959 246.819 299.272 247.571 298.851C248.391 298.339 249.475 297.995 250.824 297.817C252.41 297.608 254.329 297.477 256.581 297.422C258.834 297.368 261.189 297.179 263.648 296.855C266.186 296.521 268.691 295.626 271.162 294.171C273.702 292.627 275.957 290.756 277.927 288.56C279.887 286.285 281.39 283.909 282.435 281.431C283.55 278.864 283.945 276.35 283.621 273.892C283.329 271.671 282.288 269.589 280.499 267.646C278.71 265.703 275.967 264.168 272.268 263.041C268.569 261.914 264.635 261.141 260.464 260.722C257.219 266.716 254.062 273.386 250.995 280.729C247.916 287.993 244.854 295.376 241.807 302.877C238.75 310.3 235.606 317.371 232.375 324.09C229.145 330.809 225.799 336.656 222.339 341.63C221.523 342.787 220.874 343.679 220.391 344.307C219.899 344.856 219.234 345.63 218.397 346.627C222.323 347.644 226.755 348.513 231.691 349.234C236.628 349.956 242.186 350.193 248.367 349.944C249.012 349.94 249.651 349.896 250.286 349.812C251.01 349.798 251.689 349.749 252.324 349.665ZM189.237 357.729C193.71 357.382 197.687 356.334 201.168 354.584C204.719 352.745 207.924 350.427 210.783 347.63C207.829 346.647 204.791 345.635 201.669 344.593C198.615 343.462 195.384 342.516 191.975 341.754C189.571 341.264 187.417 341.144 185.513 341.395C182.578 341.781 180.462 342.867 179.164 344.651C177.855 346.357 177.331 348.201 177.592 350.184C177.864 352.246 178.997 354.114 180.993 355.788C182.978 357.383 185.726 358.029 189.237 357.729ZM310.036 341.341C307.102 341.727 304.319 341.125 301.689 339.535C299.138 337.934 297.607 335.191 297.095 331.304C296.626 327.735 296.997 323.813 298.209 319.538C299.411 315.184 301.157 311.283 303.446 307.834C305.391 304.835 307.677 302.275 310.302 300.154C312.928 298.033 315.51 296.805 318.048 296.471C319.793 296.242 321.363 296.519 322.757 297.304C324.241 298.157 325.109 299.536 325.359 301.439C325.62 303.422 325.154 305.703 323.96 308.281C322.766 310.858 320.917 313.361 318.413 315.789C317.338 316.818 315.94 317.849 314.221 318.883C312.501 319.916 310.765 320.83 309.014 321.626C307.253 322.342 305.777 322.778 304.587 322.935C304.316 323.939 304.086 325.26 303.899 326.898C303.79 328.527 303.846 330.173 304.065 331.839C304.326 333.822 304.957 335.554 305.959 337.036C306.961 338.518 308.533 339.118 310.675 338.836C313.292 338.491 315.572 337.425 317.516 335.636C319.459 333.847 321.117 331.732 322.49 329.292C323.853 326.773 324.938 324.29 325.746 321.844C326.633 319.387 327.329 317.318 327.834 315.638C328.163 314.465 328.725 313.826 329.518 313.722C329.914 313.669 330.139 313.842 330.191 314.238C330.233 314.556 330.166 314.968 329.991 315.475C329.194 318.001 328.338 320.695 327.424 323.559C326.5 326.344 325.321 329.041 323.89 331.65C322.448 334.18 320.591 336.32 318.32 338.072C316.129 339.813 313.367 340.902 310.036 341.341ZM305.138 320.683C306.248 320.537 308.06 319.895 310.573 318.758C313.076 317.541 315.278 315.879 317.179 313.773C319.001 311.677 320.326 309.485 321.155 307.198C321.973 304.83 322.283 302.893 322.084 301.386C321.854 299.642 321.105 298.853 319.836 299.02C318.884 299.145 317.659 299.952 316.161 301.44C314.662 302.928 312.882 305.341 310.82 308.679C309.563 310.781 308.407 313.031 307.351 315.43C306.295 317.828 305.557 319.579 305.138 320.683ZM339.619 337.083C336.209 337.532 333.556 336.994 331.66 335.468C329.765 333.942 328.645 331.871 328.3 329.254C328.133 327.984 328.13 326.734 328.291 325.503C328.526 323.616 328.934 321.504 329.514 319.169C330.163 316.743 330.926 314.263 331.803 311.726C329.737 317.485 327.799 322.38 325.99 326.411C324.249 330.352 322.857 332.956 321.813 334.223C321.607 334.492 321.385 334.642 321.147 334.674C320.75 334.726 320.526 334.554 320.473 334.157C320.432 333.84 320.509 333.507 320.705 333.158C322.078 330.718 323.58 327.414 325.21 323.246C326.919 319.067 328.69 314.436 330.522 309.353C332.344 304.191 334.2 298.984 336.091 293.733C337.981 288.481 339.829 283.517 341.634 278.842C343.519 274.156 345.254 270.175 346.84 266.9C347.986 264.571 349.136 262.886 350.29 261.847C351.434 260.728 352.68 260.08 354.028 259.902L354.623 259.824C355.337 259.73 356.146 259.744 357.05 259.867C358.033 259.98 358.91 259.905 359.683 259.642C358.798 260.888 357.473 263.08 355.707 266.217C354.01 269.264 352.104 272.864 349.988 277.016C347.94 281.078 345.885 285.383 343.821 289.931C341.825 294.39 340.098 298.733 338.637 302.959C337.234 307.017 336.067 311.326 335.134 315.887C334.27 320.358 334.053 324.22 334.481 327.472C334.731 329.375 335.257 330.92 336.059 332.105C336.861 333.291 338.036 333.943 339.585 334.062C342.196 334.283 345.309 331.573 348.923 325.933C350.328 323.731 351.686 321.172 352.996 318.256C354.296 315.261 355.266 312.511 355.904 310.006C356.835 306.656 357.128 303.672 356.783 301.054C356.522 299.072 355.798 297.553 354.61 296.499C353.502 295.435 351.813 295.173 349.544 295.714L349.068 295.776C347.641 295.964 346.875 295.662 346.77 294.869C346.728 294.551 346.885 294.208 347.24 293.838C347.674 293.459 348.288 293.216 349.081 293.112C349.319 293.081 349.562 293.089 349.81 293.137C350.127 293.095 350.45 293.093 350.778 293.131C354.42 293.216 357.151 294.349 358.972 296.53C360.861 298.621 362.004 301.174 362.4 304.188C362.484 304.823 362.538 305.542 362.563 306.345C362.578 307.07 362.563 307.878 362.52 308.772C362.313 312.107 361.522 315.6 360.147 319.251C358.762 322.823 356.887 326.055 354.525 328.948C352.242 331.831 349.531 333.922 346.394 335.223C345.088 335.718 343.85 336.123 342.681 336.438C341.592 336.743 340.571 336.958 339.619 337.083ZM380.793 332.026C377.858 332.412 375.076 331.81 372.446 330.22C369.895 328.619 368.364 325.875 367.852 321.989C367.382 318.42 367.753 314.498 368.966 310.223C370.168 305.869 371.913 301.967 374.203 298.519C376.148 295.52 378.433 292.959 381.059 290.838C383.685 288.718 386.267 287.49 388.805 287.156C390.55 286.926 392.119 287.204 393.514 287.988C394.998 288.842 395.865 290.221 396.116 292.124C396.377 294.107 395.91 296.387 394.717 298.965C393.523 301.543 391.674 304.046 389.169 306.474C388.094 307.503 386.697 308.534 384.977 309.567C383.257 310.601 381.522 311.515 379.771 312.31C378.009 313.026 376.533 313.463 375.344 313.619C375.072 314.623 374.843 315.945 374.655 317.583C374.547 319.211 374.602 320.858 374.822 322.524C375.083 324.507 375.714 326.239 376.716 327.721C377.718 329.203 379.29 329.803 381.431 329.521C384.049 329.176 386.329 328.109 388.272 326.321C390.215 324.532 391.873 322.417 393.247 319.977C394.61 317.458 395.695 314.975 396.502 312.528C397.389 310.071 398.085 308.003 398.59 306.323C398.92 305.15 399.481 304.511 400.274 304.406C400.671 304.354 400.895 304.526 400.948 304.923C400.989 305.24 400.923 305.652 400.747 306.16C399.95 308.685 399.095 311.38 398.181 314.244C397.256 317.028 396.078 319.725 394.646 322.334C393.204 324.864 391.348 327.005 389.077 328.756C386.885 330.497 384.124 331.587 380.793 332.026ZM375.895 311.368C377.005 311.222 378.817 310.58 381.33 309.442C383.832 308.225 386.034 306.564 387.936 304.457C389.758 302.362 391.083 300.17 391.911 297.882C392.729 295.515 393.039 293.578 392.841 292.071C392.611 290.326 391.862 289.537 390.593 289.704C389.641 289.83 388.416 290.637 386.917 292.125C385.419 293.613 383.638 296.026 381.576 299.364C380.32 301.466 379.164 303.716 378.108 306.114C377.052 308.513 376.314 310.264 375.895 311.368ZM410.376 327.768C406.965 328.217 404.312 327.678 402.417 326.153C400.522 324.627 399.402 322.556 399.057 319.938C398.89 318.669 398.887 317.419 399.047 316.187C399.283 314.3 399.691 312.189 400.271 309.853C400.92 307.428 401.683 304.947 402.559 302.411C400.493 308.17 398.556 313.065 396.746 317.096C395.006 321.036 393.614 323.64 392.57 324.907C392.363 325.177 392.141 325.327 391.903 325.358C391.507 325.411 391.282 325.238 391.23 324.842C391.188 324.525 391.266 324.192 391.462 323.843C392.835 321.403 394.337 318.099 395.966 313.93C397.676 309.751 399.446 305.121 401.279 300.038C403.1 294.876 404.957 289.669 406.847 284.417C408.738 279.166 410.586 274.202 412.391 269.526C414.275 264.84 416.011 260.86 417.597 257.585C418.743 255.255 419.893 253.571 421.047 252.531C422.191 251.412 423.437 250.764 424.785 250.587L425.38 250.508C426.094 250.414 426.902 250.429 427.806 250.552C428.789 250.665 429.667 250.59 430.439 250.326C429.554 251.573 428.229 253.764 426.464 256.902C424.767 259.949 422.86 263.549 420.744 267.701C418.697 271.763 416.641 276.068 414.577 280.616C412.582 285.075 410.854 289.417 409.393 293.644C407.991 297.702 406.823 302.011 405.891 306.572C405.027 311.043 404.809 314.904 405.237 318.156C405.488 320.06 406.014 321.604 406.816 322.79C407.617 323.975 408.792 324.628 410.341 324.746C412.952 324.968 416.065 322.258 419.68 316.618C421.085 314.416 422.442 311.857 423.753 308.941C425.053 305.945 426.022 303.195 426.661 300.691C427.592 297.34 427.885 294.357 427.54 291.739C427.279 289.756 426.555 288.238 425.367 287.184C424.258 286.119 422.57 285.858 420.301 286.398L419.825 286.461C418.397 286.649 417.631 286.346 417.527 285.553C417.485 285.236 417.642 284.893 417.996 284.523C418.431 284.143 419.044 283.901 419.837 283.797C420.075 283.765 420.318 283.774 420.567 283.822C420.884 283.78 421.207 283.778 421.534 283.815C425.177 283.901 427.908 285.034 429.728 287.215C431.617 289.306 432.76 291.859 433.157 294.873C433.241 295.507 433.295 296.226 433.32 297.03C433.335 297.754 433.32 298.563 433.276 299.456C433.07 302.792 432.279 306.285 430.904 309.936C429.518 313.507 427.644 316.739 425.281 319.633C422.998 322.515 420.288 324.607 417.151 325.908C415.844 326.402 414.607 326.807 413.438 327.123C412.348 327.427 411.328 327.642 410.376 327.768ZM450.005 273.289C448.816 273.446 447.772 273.18 446.875 272.491C446.046 271.712 445.553 270.728 445.397 269.539C445.198 268.032 445.621 266.644 446.664 265.377C447.708 264.11 448.943 263.383 450.371 263.195C451.64 263.028 452.723 263.289 453.621 263.977C454.519 264.666 455.04 265.566 455.187 266.676C455.385 268.183 454.968 269.61 453.935 270.956C452.902 272.303 451.592 273.08 450.005 273.289ZM446.728 322.861C443.793 323.247 441.621 322.686 440.212 321.177C438.793 319.589 437.937 317.684 437.645 315.463C437.488 314.274 437.45 313.068 437.532 311.847C437.682 310.536 437.887 309.339 438.148 308.256L443.441 286.862C443.595 286.196 443.641 285.625 443.579 285.149C443.474 284.356 443.187 283.708 442.717 283.205C442.237 282.623 441.902 282.223 441.712 282.006L448.225 280.907C449.404 280.671 450.258 280.72 450.786 281.054C451.383 281.298 451.712 281.658 451.775 282.134C451.838 282.61 451.675 283.519 451.287 284.861L444.466 309.361C444.466 309.361 444.296 309.907 443.956 311.001C443.685 312.005 443.53 312.671 443.493 312.999C443.412 314.22 443.352 314.994 443.315 315.322C443.277 315.65 443.264 315.853 443.274 315.932C443.284 316.012 443.326 316.329 443.399 316.884C443.535 317.915 443.888 318.757 444.458 319.408C445.107 320.048 446.066 320.285 447.335 320.118C448.128 320.014 449.009 319.656 449.977 319.044C450.946 318.432 451.637 317.857 452.05 317.319C453.761 314.996 455.35 312.043 456.815 308.461C458.349 304.79 459.729 301.178 460.956 297.628C461.169 296.793 461.513 296.344 461.989 296.282C462.386 296.229 462.621 296.481 462.694 297.036C462.735 297.353 462.679 297.845 462.525 298.511C461.951 300.281 461.231 302.473 460.365 305.089C459.499 307.704 458.395 310.351 457.053 313.029C455.78 315.617 454.296 317.83 452.601 319.667C450.907 321.504 448.949 322.569 446.728 322.861ZM490.246 317.132C488.105 317.414 486.179 316.578 484.469 314.624C483.989 314.042 483.523 313.256 483.07 312.267C482.617 311.277 482.307 310.148 482.14 308.879C482.046 308.165 481.991 307.446 481.977 306.722C481.952 305.918 482.006 305.104 482.139 304.28C481.259 306.171 480.206 308.287 478.981 310.626C477.824 312.877 476.399 314.92 474.704 316.757C473.078 318.504 471.115 319.529 468.815 319.832C468.022 319.936 467.174 319.927 466.27 319.804C464.045 319.451 462.352 318.545 461.191 317.084C460.11 315.612 459.423 313.766 459.131 311.545C458.807 309.086 458.928 306.327 459.493 303.267C460.138 300.197 461.031 297.174 462.173 294.2C463.394 291.215 464.706 288.621 466.111 286.419C468.125 283.33 470.569 280.749 473.443 278.676C476.317 276.603 479.34 275.358 482.513 274.94C485.368 274.564 488.164 274.963 490.901 276.135C491.798 273.758 492.743 271.132 493.737 268.258C494.72 265.304 495.708 262.39 496.701 259.516C497.694 256.642 498.56 254.027 499.299 251.67C500.027 249.234 500.591 247.385 500.989 246.122C501.814 243.189 502.694 241.298 503.631 240.448C504.637 239.509 505.894 238.94 507.401 238.742C508.273 238.627 509.241 238.621 510.303 238.723C511.435 238.735 512.511 238.634 513.531 238.419C513.118 238.957 512.309 240.476 511.105 242.975C509.97 245.383 508.64 248.463 507.117 252.214C505.594 255.965 503.959 260.094 502.212 264.6C500.534 269.017 498.867 273.513 497.21 278.089C495.621 282.574 494.126 286.846 492.724 290.904C491.39 294.872 490.346 298.277 489.591 301.12C489.357 301.797 489.053 303.168 488.68 305.234C488.375 307.211 488.317 308.913 488.505 310.341C488.641 311.372 488.999 312.253 489.579 312.983C490.149 313.634 490.989 313.887 492.099 313.741C493.606 313.542 495.014 312.59 496.323 310.885C497.7 309.09 498.957 306.988 500.092 304.579C501.217 302.091 502.193 299.703 503.022 297.415C503.84 295.048 504.443 293.194 504.831 291.852C505.113 290.927 505.531 290.428 506.087 290.355C506.562 290.292 506.847 290.618 506.941 291.332C506.952 291.411 506.973 291.57 507.004 291.808C507.025 291.966 506.972 292.175 506.844 292.434C506.35 294.193 505.63 296.386 504.685 299.012C503.819 301.627 502.715 304.274 501.373 306.952C500.031 309.63 498.438 311.938 496.595 313.875C494.742 315.733 492.626 316.818 490.246 317.132ZM469.194 316.272C470.304 316.126 471.614 315.348 473.123 313.939C474.622 312.451 476.145 310.233 477.694 307.286C479.497 303.821 481.513 299.521 483.742 294.386C485.97 289.251 488.123 283.844 490.199 278.164C489.043 277.348 487.791 277.029 486.442 277.207C484.221 277.499 481.859 278.859 479.354 281.287C476.929 283.704 474.617 286.671 472.417 290.188C470.296 293.695 468.578 297.189 467.261 300.671C466.364 303.048 465.757 305.186 465.442 307.083C465.207 308.97 465.178 310.588 465.355 311.936C465.773 315.109 467.052 316.554 469.194 316.272ZM533.616 311.785C532.754 311.979 531.737 311.911 530.564 311.582C529.39 311.252 528.284 310.51 527.245 309.356C526.284 308.191 525.653 306.459 525.35 304.159C525.099 302.255 525.153 299.908 525.512 297.117C524.759 298.75 523.775 300.775 522.56 303.195C521.335 305.534 519.96 307.652 518.434 309.547C517.115 311.174 515.823 312.393 514.558 313.205C513.294 314.017 512.106 314.496 510.996 314.642C508.933 314.913 507.148 314.221 505.638 312.563C504.119 310.827 503.161 308.452 502.764 305.438C502.346 302.265 502.664 298.552 503.718 294.298C504.772 290.044 506.796 285.501 509.791 280.669C511.726 277.59 514.209 275.003 517.242 272.91C520.343 270.726 523.48 269.426 526.653 269.008C528.477 268.768 530.264 268.855 532.013 269.27C533.752 269.606 535.345 270.365 536.791 271.546C537.419 272.028 537.781 272.626 537.875 273.34C537.937 273.816 537.791 274.239 537.436 274.608C537.081 274.978 536.576 275.125 535.921 275.05C534.683 272.389 532.636 271.246 529.781 271.622C528.433 271.799 526.943 272.439 525.313 273.542C522.805 275.324 520.297 278.035 517.79 281.673C515.363 285.301 513.308 289.001 511.626 292.773C511.372 293.29 510.976 294.27 510.44 295.713C509.983 297.144 509.547 298.735 509.132 300.484C508.716 302.233 508.494 303.917 508.465 305.534C508.448 306.021 508.456 306.383 508.487 306.621C508.508 306.779 508.545 307.057 508.597 307.454C508.941 310.071 510.105 311.249 512.088 310.988C514.467 310.675 516.934 308.575 519.489 304.688C521.217 301.879 522.731 298.976 524.031 295.981C525.331 292.986 526.645 289.787 527.972 286.384C528.88 284.086 529.756 282.155 530.599 280.592C531.442 279.029 532.815 278.121 534.719 277.871C535.591 277.756 536.48 277.76 537.383 277.883C538.287 278.006 539.204 277.926 540.135 277.642C539.584 278.36 538.869 279.665 537.988 281.556C537.186 283.436 536.337 285.566 535.44 287.943C534.542 290.32 533.769 292.722 533.12 295.147C532.471 297.573 532.058 299.644 531.881 301.362C531.864 301.849 531.834 302.538 531.79 303.432C531.826 304.315 531.87 304.954 531.922 305.351C532.214 307.572 532.995 308.599 534.264 308.432C535.533 308.265 536.782 307.334 538.012 305.639C539.32 303.933 540.542 301.876 541.677 299.467C542.813 297.059 543.829 294.665 544.726 292.288C545.613 289.831 546.32 287.842 546.846 286.32C547.058 285.485 547.482 285.026 548.117 284.943C548.513 284.89 548.748 285.142 548.821 285.697C548.852 285.935 548.791 286.387 548.636 287.053C547.946 289.161 547.093 291.573 546.079 294.289C545.054 296.925 543.906 299.537 542.632 302.125C541.349 304.634 539.939 306.797 538.403 308.613C536.936 310.339 535.34 311.397 533.616 311.785ZM552.497 309.42C548.61 309.932 545.703 309.306 543.777 307.542C541.919 305.689 540.844 303.652 540.552 301.431C540.311 299.607 540.528 297.884 541.202 296.262C541.956 294.63 542.962 293.69 544.22 293.444C545.399 290.142 546.661 286.546 548.005 282.658C549.428 278.759 550.708 274.999 551.846 271.38C552.653 268.934 553.749 266.53 555.133 264.169C556.596 261.798 558.337 260.318 560.358 259.729L561.548 259.573C562.182 259.489 562.742 259.456 563.229 259.472C563.794 259.478 564.371 259.564 564.957 259.729C565.882 260.011 566.396 260.548 566.501 261.341C566.563 261.817 566.317 262.092 565.762 262.165C565.524 262.196 565.191 262.119 564.763 261.933C563.759 261.662 562.9 261.573 562.186 261.667C561.71 261.73 561.29 261.906 560.925 262.196C559.522 263.188 558.598 264.439 558.151 265.95C557.784 267.451 557.704 268.995 557.913 270.581C558.08 271.85 558.372 273.143 558.787 274.46C559.271 275.687 559.78 276.791 560.312 277.769C561.477 279.875 562.676 281.937 563.91 283.953C565.223 285.958 566.041 288.191 566.365 290.65C566.678 293.029 566.219 295.672 564.988 298.577C563.746 301.403 562.001 303.772 559.751 305.682L560.599 305.691C561.006 305.718 561.289 305.721 561.448 305.7C561.606 305.679 561.725 305.664 561.804 305.653C563.629 305.413 565.266 304.673 566.717 303.433C568.236 302.103 569.526 300.562 570.586 298.808C571.646 297.055 572.782 294.646 573.992 291.582C575.282 288.507 576.471 285.285 577.561 281.914C577.746 281.486 577.998 281.251 578.315 281.209C578.712 281.157 579.01 281.279 579.211 281.575C579.48 281.782 579.561 282.094 579.455 282.511C578.716 284.868 577.845 287.444 576.841 290.239C575.906 292.944 574.763 295.596 573.41 298.195C572.047 300.714 570.355 302.873 568.332 304.673C566.379 306.382 564.054 307.415 561.357 307.77C560.722 307.853 560.043 307.902 559.319 307.917C558.594 307.932 557.86 307.867 557.115 307.723C556.363 308.145 555.562 308.492 554.71 308.766C553.948 309.108 553.21 309.326 552.497 309.42ZM555.596 305.381C556.798 304.093 557.774 302.311 558.523 300.033C559.351 297.746 559.536 294.857 559.076 291.367C558.669 288.274 557.919 285.024 556.825 281.618C555.731 278.211 555.006 275.16 554.651 272.463C554.578 271.908 554.515 271.432 554.463 271.035C554.48 270.549 554.502 270.102 554.529 269.695C553.78 271.973 552.919 274.628 551.946 277.66C550.963 280.614 549.97 283.488 548.966 286.283C547.963 289.078 547.105 291.45 546.393 293.4C546.393 293.4 546.597 293.413 547.004 293.441C547.48 293.378 547.952 293.598 548.422 294.101C548.881 294.525 549.171 295.495 549.29 297.013C549.471 299.006 550.153 300.813 551.334 302.432C552.585 303.962 554.005 304.945 555.596 305.381ZM551.294 307.642C551.77 307.579 552.201 307.482 552.587 307.351C552.963 307.14 553.304 306.974 553.611 306.853C552.306 306.137 551.084 305.128 549.944 303.826C548.874 302.433 548.107 300.598 547.646 298.319C546.417 300.013 545.917 301.733 546.147 303.478C546.314 304.747 546.856 305.806 547.775 306.653C548.693 307.5 549.866 307.83 551.294 307.642Z" fill="#01639A"/>
<circle cx="203.848" cy="41.8481" r="11.8481" fill="#D9008F"/>
<circle cx="228.48" cy="66.4796" r="4.67687" fill="#D9008F"/>
<circle cx="259.971" cy="55.5669" r="7.48299" fill="#D9008F"/>
<path d="M467 70.8615L318.978 88.0132L330.491 93.887L452.903 80.2597C452.903 80.2597 404.659 158.03 385.001 217.003C374.295 249.121 379.362 285.61 379.362 285.61L386.88 279.266C386.88 279.266 380.193 246.608 399.568 199.852C421.328 147.34 467 70.8615 467 70.8615Z" fill="url(#paint1_linear_6_13)"/>
<path d="M245.673 96.4715L236.274 97.6463C299.007 160.614 331.431 206.9 331.431 206.9C364.56 253.186 364.56 301.352 364.56 301.352H372.313C372.313 301.352 369.024 253.186 350.227 223.112C311.734 161.523 245.673 96.4715 245.673 96.4715Z" fill="url(#paint2_linear_6_13)"/>
<path d="M388.525 395.099C418.834 390.4 451.728 384.056 448.204 365.495C443.974 356.801 442.095 351.163 405.677 344.114L400.978 339.415L394.634 342.234L397.923 348.813C408.731 353.277 437.161 354.922 439.745 367.139C439.091 381.965 388.525 387.581 388.525 387.581C388.525 387.581 334.119 394.806 330.726 381.237C327.202 367.139 363.385 357.036 367.144 352.572L368.554 345.994C362.68 348.813 361.27 347.46 361.27 347.46C358.686 350.693 316.629 363.85 322.268 384.056C327.202 397.449 343.414 397.449 388.525 395.099Z" fill="url(#paint3_linear_6_13)"/>
<path d="M337.775 378.887C338.48 370.664 368.789 364.32 368.789 364.32C368.789 364.32 355.162 367.983 351.872 376.068C355.866 381.942 369.964 380.767 369.964 380.767C369.964 380.767 339.185 385.231 337.775 378.887Z" fill="white"/>
<path d="M370.669 219.588L427.528 104.93C427.528 104.93 399.098 124.204 375.368 121.142C353.517 118.322 251.824 55.6923 243.558 71.0964C238.389 80.7295 283.5 120.437 283.5 120.437L364.56 219.588C367.614 223.817 370.669 219.588 370.669 219.588Z" fill="url(#paint4_linear_6_13)"/>
<defs>
<linearGradient id="paint0_linear_6_13" x1="10" y1="238" x2="739" y2="238" gradientUnits="userSpaceOnUse">
<stop stop-color="#8CD769"/>
<stop offset="1" stop-color="#00FFF0"/>
</linearGradient>
<linearGradient id="paint1_linear_6_13" x1="392.989" y1="70.8615" x2="392.989" y2="285.61" gradientUnits="userSpaceOnUse">
<stop stop-color="#00A3FF"/>
<stop offset="1" stop-color="white"/>
</linearGradient>
<linearGradient id="paint2_linear_6_13" x1="304.294" y1="96.4715" x2="304.294" y2="301.352" gradientUnits="userSpaceOnUse">
<stop stop-color="#00A3FF"/>
<stop offset="1" stop-color="white"/>
</linearGradient>
<linearGradient id="paint3_linear_6_13" x1="385.106" y1="339.415" x2="385.106" y2="396.282" gradientUnits="userSpaceOnUse">
<stop stop-color="#00A3FF"/>
<stop offset="1" stop-color="white"/>
</linearGradient>
<linearGradient id="paint4_linear_6_13" x1="247.552" y1="71.3314" x2="374.193" y2="200.556" gradientUnits="userSpaceOnUse">
<stop stop-color="#F1009F"/>
<stop offset="1" stop-color="#FF6B00"/>
</linearGradient>
</defs>
</svg>
