<svg width="299" height="397" viewBox="0 0 299 397" fill="none" xmlns="http://www.w3.org/2000/svg">
<rect y="74" width="299" height="323" rx="34" fill="#058BA2"/>
<path d="M145.5 156.5C138.167 156.5 131.667 153.833 126 148.5C120.667 142.833 118 136.333 118 129C118 121.333 120.667 114.833 126 109.5C131.667 104.167 138.167 101.5 145.5 101.5C153.167 101.5 159.667 104.167 165 109.5C170.333 114.833 173 121.333 173 129C173 136.333 170.333 142.833 165 148.5C159.667 153.833 153.167 156.5 145.5 156.5ZM112 361.5C106 361.5 103 359.667 103 356C103 354.667 103.5 353.333 104.5 352C105.833 351 107.667 350.333 110 350C117.333 348.333 124.667 345.5 132 341.5C139.333 337.5 145.5 331.667 150.5 324C155.5 316.667 158 307.167 158 295.5C158 291.5 156.167 287 152.5 282C148.833 276.667 144.167 273.833 138.5 273.5C131.167 272.833 125.333 270.5 121 266.5C117 262.5 115 257.833 115 252.5C115 245.833 117.667 240.333 123 236C128.667 231.667 135.167 229.5 142.5 229.5C154.5 229.5 164.333 234.167 172 243.5C180 252.5 184 264 184 278C184 290.667 181.5 302 176.5 312C171.5 322.333 165.167 331.167 157.5 338.5C149.833 345.833 141.833 351.5 133.5 355.5C125.5 359.5 118.333 361.5 112 361.5Z" fill="white"/>
</svg>
